<mxfile host="app.diagrams.net" modified="2021-09-13T00:08:12.456Z" agent="5.0 (Windows NT 10.0; Win64; x64) AppleWebKit/537.36 (KHTML, like Gecko) Chrome/92.0.4515.159 Safari/537.36" etag="SuD_sH1Ck8i07kshTvav" version="15.2.1" type="github">
  <diagram id="8RiAjywS743xeEZnv0D9" name="Page-1">
    <mxGraphModel dx="713" dy="587" grid="1" gridSize="10" guides="1" tooltips="1" connect="1" arrows="1" fold="1" page="1" pageScale="1" pageWidth="850" pageHeight="1100" math="0" shadow="0">
      <root>
        <mxCell id="0" />
        <mxCell id="1" parent="0" />
        <mxCell id="A_Lu8tEpIEGmUkHRbT_P-1" value="Customers" style="swimlane;fontStyle=0;childLayout=stackLayout;horizontal=1;startSize=26;fillColor=none;horizontalStack=0;resizeParent=1;resizeParentMax=0;resizeLast=0;collapsible=1;marginBottom=0;" vertex="1" parent="1">
          <mxGeometry x="40" y="230" width="140" height="78" as="geometry" />
        </mxCell>
        <mxCell id="A_Lu8tEpIEGmUkHRbT_P-2" value="+ Name: string" style="text;strokeColor=none;fillColor=none;align=left;verticalAlign=top;spacingLeft=4;spacingRight=4;overflow=hidden;rotatable=0;points=[[0,0.5],[1,0.5]];portConstraint=eastwest;" vertex="1" parent="A_Lu8tEpIEGmUkHRbT_P-1">
          <mxGeometry y="26" width="140" height="26" as="geometry" />
        </mxCell>
        <mxCell id="A_Lu8tEpIEGmUkHRbT_P-3" value="+ Phone: string" style="text;strokeColor=none;fillColor=none;align=left;verticalAlign=top;spacingLeft=4;spacingRight=4;overflow=hidden;rotatable=0;points=[[0,0.5],[1,0.5]];portConstraint=eastwest;" vertex="1" parent="A_Lu8tEpIEGmUkHRbT_P-1">
          <mxGeometry y="52" width="140" height="26" as="geometry" />
        </mxCell>
        <mxCell id="A_Lu8tEpIEGmUkHRbT_P-5" value="" style="line;strokeWidth=1;fillColor=none;align=left;verticalAlign=middle;spacingTop=-1;spacingLeft=3;spacingRight=3;rotatable=0;labelPosition=right;points=[];portConstraint=eastwest;" vertex="1" parent="1">
          <mxGeometry x="180" y="265" width="110" height="8" as="geometry" />
        </mxCell>
        <mxCell id="A_Lu8tEpIEGmUkHRbT_P-6" value="Restaurants" style="swimlane;fontStyle=0;childLayout=stackLayout;horizontal=1;startSize=26;fillColor=none;horizontalStack=0;resizeParent=1;resizeParentMax=0;resizeLast=0;collapsible=1;marginBottom=0;" vertex="1" parent="1">
          <mxGeometry x="290" y="420" width="140" height="78" as="geometry" />
        </mxCell>
        <mxCell id="A_Lu8tEpIEGmUkHRbT_P-7" value="+ Address: string" style="text;strokeColor=none;fillColor=none;align=left;verticalAlign=top;spacingLeft=4;spacingRight=4;overflow=hidden;rotatable=0;points=[[0,0.5],[1,0.5]];portConstraint=eastwest;" vertex="1" parent="A_Lu8tEpIEGmUkHRbT_P-6">
          <mxGeometry y="26" width="140" height="26" as="geometry" />
        </mxCell>
        <mxCell id="A_Lu8tEpIEGmUkHRbT_P-8" value="+ Distinct Number: int" style="text;strokeColor=none;fillColor=none;align=left;verticalAlign=top;spacingLeft=4;spacingRight=4;overflow=hidden;rotatable=0;points=[[0,0.5],[1,0.5]];portConstraint=eastwest;" vertex="1" parent="A_Lu8tEpIEGmUkHRbT_P-6">
          <mxGeometry y="52" width="140" height="26" as="geometry" />
        </mxCell>
        <mxCell id="A_Lu8tEpIEGmUkHRbT_P-10" value="Orders" style="swimlane;fontStyle=0;childLayout=stackLayout;horizontal=1;startSize=26;fillColor=none;horizontalStack=0;resizeParent=1;resizeParentMax=0;resizeLast=0;collapsible=1;marginBottom=0;" vertex="1" parent="1">
          <mxGeometry x="290" y="230" width="140" height="104" as="geometry" />
        </mxCell>
        <mxCell id="A_Lu8tEpIEGmUkHRbT_P-11" value="+ Time Stamp: dateTime" style="text;strokeColor=none;fillColor=none;align=left;verticalAlign=top;spacingLeft=4;spacingRight=4;overflow=hidden;rotatable=0;points=[[0,0.5],[1,0.5]];portConstraint=eastwest;" vertex="1" parent="A_Lu8tEpIEGmUkHRbT_P-10">
          <mxGeometry y="26" width="140" height="26" as="geometry" />
        </mxCell>
        <mxCell id="A_Lu8tEpIEGmUkHRbT_P-12" value="+ Phase: string" style="text;strokeColor=none;fillColor=none;align=left;verticalAlign=top;spacingLeft=4;spacingRight=4;overflow=hidden;rotatable=0;points=[[0,0.5],[1,0.5]];portConstraint=eastwest;" vertex="1" parent="A_Lu8tEpIEGmUkHRbT_P-10">
          <mxGeometry y="52" width="140" height="26" as="geometry" />
        </mxCell>
        <mxCell id="A_Lu8tEpIEGmUkHRbT_P-23" value="+ Location: string" style="text;strokeColor=none;fillColor=none;align=left;verticalAlign=top;spacingLeft=4;spacingRight=4;overflow=hidden;rotatable=0;points=[[0,0.5],[1,0.5]];portConstraint=eastwest;" vertex="1" parent="A_Lu8tEpIEGmUkHRbT_P-10">
          <mxGeometry y="78" width="140" height="26" as="geometry" />
        </mxCell>
        <mxCell id="A_Lu8tEpIEGmUkHRbT_P-18" value="" style="endArrow=none;html=1;exitX=0.564;exitY=0.026;exitDx=0;exitDy=0;exitPerimeter=0;" edge="1" parent="1">
          <mxGeometry width="50" height="50" relative="1" as="geometry">
            <mxPoint x="368.96000000000004" y="421.028" as="sourcePoint" />
            <mxPoint x="369" y="339" as="targetPoint" />
            <Array as="points">
              <mxPoint x="369" y="339" />
            </Array>
          </mxGeometry>
        </mxCell>
        <mxCell id="A_Lu8tEpIEGmUkHRbT_P-19" value="0..*" style="text;html=1;strokeColor=none;fillColor=none;align=center;verticalAlign=middle;whiteSpace=wrap;rounded=0;" vertex="1" parent="1">
          <mxGeometry x="180" y="247" width="40" height="20" as="geometry" />
        </mxCell>
        <mxCell id="A_Lu8tEpIEGmUkHRbT_P-20" value="1..1" style="text;html=1;strokeColor=none;fillColor=none;align=center;verticalAlign=middle;whiteSpace=wrap;rounded=0;" vertex="1" parent="1">
          <mxGeometry x="250" y="247" width="40" height="20" as="geometry" />
        </mxCell>
        <mxCell id="A_Lu8tEpIEGmUkHRbT_P-24" value="0..*" style="text;html=1;strokeColor=none;fillColor=none;align=center;verticalAlign=middle;whiteSpace=wrap;rounded=0;" vertex="1" parent="1">
          <mxGeometry x="370" y="400" width="40" height="20" as="geometry" />
        </mxCell>
        <mxCell id="A_Lu8tEpIEGmUkHRbT_P-26" value="1..1" style="text;html=1;strokeColor=none;fillColor=none;align=center;verticalAlign=middle;whiteSpace=wrap;rounded=0;" vertex="1" parent="1">
          <mxGeometry x="370" y="334" width="40" height="20" as="geometry" />
        </mxCell>
        <mxCell id="A_Lu8tEpIEGmUkHRbT_P-28" value="" style="endArrow=none;html=1;exitX=0.564;exitY=0.026;exitDx=0;exitDy=0;exitPerimeter=0;" edge="1" parent="1">
          <mxGeometry width="50" height="50" relative="1" as="geometry">
            <mxPoint x="370.00000000000006" y="229.99800000000002" as="sourcePoint" />
            <mxPoint x="370.04" y="147.97" as="targetPoint" />
            <Array as="points">
              <mxPoint x="370.04" y="147.97" />
              <mxPoint x="370" y="120" />
            </Array>
          </mxGeometry>
        </mxCell>
        <mxCell id="A_Lu8tEpIEGmUkHRbT_P-29" value="Drivers" style="swimlane;fontStyle=0;childLayout=stackLayout;horizontal=1;startSize=26;fillColor=none;horizontalStack=0;resizeParent=1;resizeParentMax=0;resizeLast=0;collapsible=1;marginBottom=0;" vertex="1" parent="1">
          <mxGeometry x="290" y="70" width="140" height="52" as="geometry" />
        </mxCell>
        <mxCell id="A_Lu8tEpIEGmUkHRbT_P-30" value="+ Number Of Hour: float" style="text;strokeColor=none;fillColor=none;align=left;verticalAlign=top;spacingLeft=4;spacingRight=4;overflow=hidden;rotatable=0;points=[[0,0.5],[1,0.5]];portConstraint=eastwest;" vertex="1" parent="A_Lu8tEpIEGmUkHRbT_P-29">
          <mxGeometry y="26" width="140" height="26" as="geometry" />
        </mxCell>
        <mxCell id="A_Lu8tEpIEGmUkHRbT_P-32" value="0..1" style="text;html=1;strokeColor=none;fillColor=none;align=center;verticalAlign=middle;whiteSpace=wrap;rounded=0;" vertex="1" parent="1">
          <mxGeometry x="370" y="210" width="40" height="20" as="geometry" />
        </mxCell>
        <mxCell id="A_Lu8tEpIEGmUkHRbT_P-33" value="0..*" style="text;html=1;strokeColor=none;fillColor=none;align=center;verticalAlign=middle;whiteSpace=wrap;rounded=0;" vertex="1" parent="1">
          <mxGeometry x="370" y="122" width="40" height="30" as="geometry" />
        </mxCell>
        <mxCell id="A_Lu8tEpIEGmUkHRbT_P-40" value="" style="line;strokeWidth=1;fillColor=none;align=left;verticalAlign=middle;spacingTop=-1;spacingLeft=3;spacingRight=3;rotatable=0;labelPosition=right;points=[];portConstraint=eastwest;" vertex="1" parent="1">
          <mxGeometry x="430" y="265" width="110" height="8" as="geometry" />
        </mxCell>
        <mxCell id="A_Lu8tEpIEGmUkHRbT_P-41" value="0..*" style="text;html=1;strokeColor=none;fillColor=none;align=center;verticalAlign=middle;whiteSpace=wrap;rounded=0;" vertex="1" parent="1">
          <mxGeometry x="430" y="247" width="40" height="20" as="geometry" />
        </mxCell>
        <mxCell id="A_Lu8tEpIEGmUkHRbT_P-42" value="1..1" style="text;html=1;strokeColor=none;fillColor=none;align=center;verticalAlign=middle;whiteSpace=wrap;rounded=0;" vertex="1" parent="1">
          <mxGeometry x="500" y="247" width="40" height="20" as="geometry" />
        </mxCell>
        <mxCell id="A_Lu8tEpIEGmUkHRbT_P-43" value="Pizzas" style="swimlane;fontStyle=0;childLayout=stackLayout;horizontal=1;startSize=26;fillColor=none;horizontalStack=0;resizeParent=1;resizeParentMax=0;resizeLast=0;collapsible=1;marginBottom=0;" vertex="1" parent="1">
          <mxGeometry x="540" y="230" width="140" height="78" as="geometry" />
        </mxCell>
        <mxCell id="A_Lu8tEpIEGmUkHRbT_P-44" value="+ Size: char" style="text;strokeColor=none;fillColor=none;align=left;verticalAlign=top;spacingLeft=4;spacingRight=4;overflow=hidden;rotatable=0;points=[[0,0.5],[1,0.5]];portConstraint=eastwest;" vertex="1" parent="A_Lu8tEpIEGmUkHRbT_P-43">
          <mxGeometry y="26" width="140" height="26" as="geometry" />
        </mxCell>
        <mxCell id="A_Lu8tEpIEGmUkHRbT_P-45" value="+ Price: float" style="text;strokeColor=none;fillColor=none;align=left;verticalAlign=top;spacingLeft=4;spacingRight=4;overflow=hidden;rotatable=0;points=[[0,0.5],[1,0.5]];portConstraint=eastwest;" vertex="1" parent="A_Lu8tEpIEGmUkHRbT_P-43">
          <mxGeometry y="52" width="140" height="26" as="geometry" />
        </mxCell>
      </root>
    </mxGraphModel>
  </diagram>
</mxfile>
